<?xml version="1.0" encoding="UTF-8" standalone="no"?>
<!DOCTYPE svg PUBLIC "-//W3C//DTD SVG 1.1//EN" "http://www.w3.org/Graphics/SVG/1.1/DTD/svg11.dtd">
<svg width="100%" height="100%" viewBox="0 0 400 100" version="1.1" xmlns="http://www.w3.org/2000/svg" xmlns:xlink="http://www.w3.org/1999/xlink" xml:space="preserve" xmlns:serif="http://www.serif.com/" style="fill-rule:evenodd;clip-rule:evenodd;stroke-linejoin:round;stroke-miterlimit:2;">
    <g transform="matrix(5.65839,0,0,5.65839,-873.069,-1033.65)">
        <path d="M179.07,194.469C178.27,194.469 177.688,194.161 177.324,193.545C176.96,192.929 176.778,192.037 176.778,190.869C176.778,189.837 176.906,188.715 177.162,187.503C177.418,186.291 177.792,185.259 178.284,184.407C178.776,183.555 179.362,183.129 180.042,183.129C180.41,183.129 180.706,183.287 180.93,183.603C181.154,183.919 181.266,184.329 181.266,184.833C181.266,185.489 181.142,186.141 180.894,186.789C180.646,187.437 180.234,188.117 179.658,188.829C180.05,188.861 180.392,188.993 180.684,189.225C180.976,189.457 181.2,189.757 181.356,190.125C181.512,190.493 181.59,190.893 181.59,191.325C181.59,191.925 181.472,192.465 181.236,192.945C181,193.425 180.69,193.799 180.306,194.067C179.922,194.335 179.51,194.469 179.07,194.469ZM178.362,189.645C178.89,188.677 179.312,187.823 179.628,187.083C179.944,186.343 180.102,185.685 180.102,185.109C180.102,184.853 180.072,184.657 180.012,184.521C179.952,184.385 179.87,184.317 179.766,184.317C179.606,184.317 179.432,184.555 179.244,185.031C179.056,185.507 178.882,186.153 178.722,186.969C178.562,187.785 178.442,188.677 178.362,189.645ZM179.118,193.173C179.39,193.173 179.62,193.025 179.808,192.729C179.996,192.433 180.09,192.001 180.09,191.433C180.09,190.993 180.01,190.661 179.85,190.437C179.69,190.213 179.498,190.101 179.274,190.101C178.994,190.101 178.758,190.245 178.566,190.533C178.374,190.821 178.278,191.241 178.278,191.793C178.278,192.273 178.358,192.623 178.518,192.843C178.678,193.063 178.878,193.173 179.118,193.173Z" style="fill:white;"/>
        <path d="M216.93,194.469C216.626,194.469 216.412,194.309 216.288,193.989C216.164,193.669 216.102,193.157 216.102,192.453C216.102,191.413 216.25,190.425 216.546,189.489C216.618,189.257 216.736,189.087 216.9,188.979C217.064,188.871 217.294,188.817 217.59,188.817C217.75,188.817 217.862,188.837 217.926,188.877C217.99,188.917 218.022,188.993 218.022,189.105C218.022,189.233 217.962,189.521 217.842,189.969C217.762,190.289 217.698,190.569 217.65,190.809C217.602,191.049 217.562,191.345 217.53,191.697C217.794,191.009 218.09,190.449 218.418,190.017C218.746,189.585 219.068,189.277 219.384,189.093C219.7,188.909 219.99,188.817 220.254,188.817C220.51,188.817 220.704,188.883 220.836,189.015C220.968,189.147 221.034,189.341 221.034,189.597C221.034,189.805 220.99,190.197 220.902,190.773C220.822,191.261 220.758,191.723 220.71,192.159C220.662,192.595 220.638,193.081 220.638,193.617C220.638,193.921 220.576,194.139 220.452,194.271C220.328,194.403 220.126,194.469 219.846,194.469C219.582,194.469 219.39,194.401 219.27,194.265C219.15,194.129 219.09,193.925 219.09,193.653C219.09,193.333 219.146,192.805 219.258,192.069C219.354,191.429 219.402,191.021 219.402,190.845C219.402,190.717 219.358,190.653 219.27,190.653C219.166,190.653 219.02,190.787 218.832,191.055C218.644,191.323 218.452,191.677 218.256,192.117C218.06,192.557 217.902,193.021 217.782,193.509C217.694,193.885 217.592,194.139 217.476,194.271C217.36,194.403 217.178,194.469 216.93,194.469Z" style="fill:white;"/>
        <text x="156.798px" y="194.409px" style="font-family:'Pacifico-Regular', 'Pacifico';font-size:12px;fill:white;">We<tspan x="181.758px " y="194.409px ">s</tspan>hoppa</text>
    </g>
</svg>
